<svg width="171" height="35" viewBox="0 0 171 35" fill="none" xmlns="http://www.w3.org/2000/svg">
<g clip-path="url(#clip0_10972_71834)">
<path d="M20.6976 6.6885C20.7608 6.7375 20.9125 6.85732 21.0521 6.96935L23.6895 4.02951C23.3991 3.72245 21.9196 2.23584 19.5628 1.19577L19.5523 1.19109C19.4713 1.15521 19.3893 1.12026 19.3068 1.08624L18.9169 0.930218C17.0884 0.234031 15.0536 -0.0811406 13.0114 0.0177797C9.38012 0.193777 6.0343 1.76527 3.59031 4.44267C-0.410859 8.82637 -1.1408 15.2003 1.76884 20.2949L1.80567 20.3617C1.85141 20.4406 2.95461 22.3198 5.20552 24.4539L5.9815 23.6079C5.9815 23.6079 5.97905 23.6057 5.97813 23.6045L7.98439 21.3786L7.84442 21.2538C7.82631 21.2395 7.80973 21.2245 7.79377 21.2095L7.76307 21.183C7.67559 21.1096 7.59578 21.0401 7.51751 20.9705L7.46594 20.9249C7.39043 20.8569 7.31707 20.7895 7.24555 20.7218L7.20319 20.6815C7.1286 20.6101 7.06045 20.5436 6.99446 20.4774L6.97819 20.4612C6.90882 20.391 6.8419 20.3211 6.77621 20.2512L6.7317 20.2041C6.66847 20.1357 6.60708 20.0683 6.54753 20.0009L6.50762 19.9551C6.44992 19.8895 6.39436 19.8249 6.34033 19.7603L6.3256 19.7429C6.26728 19.673 6.21233 19.6049 6.15862 19.5372L6.12209 19.491C6.06929 19.4243 6.01926 19.3587 5.97045 19.2941L5.93822 19.2508C5.89156 19.1883 5.84613 19.1259 5.80255 19.0635L5.7872 19.042C5.743 18.9796 5.69849 18.915 5.65521 18.851L5.62451 18.8055C5.58399 18.7449 5.54378 18.6834 5.50511 18.6232L5.47932 18.5827C5.4431 18.5255 5.40627 18.4672 5.37127 18.4098L5.36237 18.3951C5.32554 18.3346 5.29085 18.2753 5.25678 18.2169L5.23468 18.1785C5.20398 18.1236 5.17144 18.0678 5.14259 18.0132L5.12479 17.982C5.09808 17.933 5.07076 17.8824 5.04498 17.8328L5.03546 17.8147C5.00722 17.7613 4.98113 17.7095 4.95596 17.6587L4.94338 17.634C4.91851 17.5835 4.89457 17.5345 4.87247 17.4877L4.86725 17.4767C4.81752 17.3719 4.7767 17.2811 4.74109 17.1987L4.73679 17.189L4.70886 17.1235L4.70364 17.1163L4.68154 17.0573C3.33646 13.6248 4.04185 9.80434 6.52328 7.08543C8.25758 5.18535 10.6319 4.07008 13.2088 3.94526C13.8248 3.91565 14.4421 3.94154 15.0536 4.02265C15.6816 4.11626 17.9107 4.57092 20.511 6.54028L20.6976 6.6885Z" fill="#0030FF"/>
<path d="M27.162 20.8746C27.066 18.9386 26.5558 17.0472 25.6672 15.3322C25.1317 14.332 24.4833 13.3987 23.7352 12.5512C23.0423 11.7919 22.2716 11.1102 21.4361 10.5176L18.8696 13.3429C19.7042 13.8968 20.1634 14.246 20.7614 14.895C21.1773 15.3448 21.5539 15.8305 21.887 16.3467C22.6989 17.6302 23.1959 19.3112 23.2867 21.0761C23.4126 23.5357 22.5074 25.9629 20.739 27.9101C19.0348 29.7855 16.6988 30.8892 14.1612 31.0175C14.0811 31.0219 13.7929 31.0328 13.648 31.0328C13.485 31.0328 13.2563 31.0272 12.9727 31.005C12.6547 30.9822 12.3324 30.9426 12.0181 30.8877C10.4243 30.6249 8.03315 29.8972 5.71655 27.9272L5.70305 27.9154L5.6788 27.8929L5.67511 27.897L3.07028 30.8015L3.06445 30.8084C7.55706 34.7131 12.0181 34.9993 13.2281 34.9993C13.4055 34.9993 14.2834 34.9787 14.3638 34.9746C17.9635 34.7924 21.2774 33.2271 23.6953 30.5666C26.1132 27.906 27.3481 24.46 27.1639 20.8739" fill="#0030FF"/>
<path d="M20.2741 20.8244C20.2707 20.7667 20.2667 20.7049 20.2621 20.6409C20.2322 20.2014 20.1439 19.7679 19.9994 19.3525C18.8943 16.2354 15.6127 15.8678 13.3317 15.2253C13.1239 15.1669 12.924 15.1058 12.735 15.0403C12.2929 14.868 11.8165 14.7051 11.497 14.2102C11.1593 13.6894 11.1833 12.8599 11.6895 12.2876C12.494 11.3783 13.4821 11.0769 16.3816 12.0174L19.0828 9.04668C19.0828 9.04668 17.4701 8.31367 15.7618 8.04437L15.8217 6.41172C13.4314 5.65218 11.3263 6.45478 11.3263 6.45478V7.99787C9.61566 8.58484 8.31325 9.78686 7.62106 11.2616C7.29415 11.9581 6.6609 13.9559 7.51486 15.9215C9.01249 19.3687 13.7881 19.0485 15.3564 20.2091C15.8475 20.5714 16.1544 21.1249 16.1256 21.6979C16.0507 22.5092 15.4785 22.8921 14.8456 23.064H14.8394C14.6949 23.1025 14.5481 23.1315 14.3999 23.1511C13.9114 23.2326 13.4159 23.2632 12.9213 23.2422C12.0192 23.2115 11.1288 23.026 10.2876 22.6933L7.49153 25.8285C8.6839 26.5139 9.97937 26.9946 11.3257 27.2511V28.7131C13.6991 29.2998 15.8288 28.6716 15.8288 28.6716V26.9915C19.9018 25.5205 20.3465 22.1619 20.2732 20.8232" fill="#0030FF"/>
<path d="M73.8841 12.6842C72.7177 12.0613 71.3569 11.7493 69.8016 11.748C68.2732 11.748 66.9256 12.0551 65.759 12.6692C64.5924 13.2833 63.6841 14.1602 63.0342 15.2998C62.3842 16.4394 62.0594 17.7722 62.0596 19.2981C62.0596 20.796 62.3776 22.1123 63.0136 23.2471C63.6496 24.382 64.551 25.2589 65.7179 25.878C66.8843 26.4965 68.2451 26.8058 69.8004 26.8058C71.3286 26.8058 72.6763 26.501 73.8433 25.8915C75.0103 25.2819 75.9163 24.4098 76.5611 23.2752C77.2063 22.14 77.5289 20.8143 77.5289 19.2981C77.5289 17.7905 77.2132 16.4671 76.5817 15.3279C75.9501 14.1887 75.0511 13.3071 73.8844 12.683M72.718 21.377C72.4483 21.9822 72.0617 22.452 71.5583 22.7866C71.0549 23.1211 70.4691 23.2885 69.801 23.289C69.1234 23.289 68.5355 23.1215 68.0372 22.7866C67.5389 22.4516 67.1568 21.9818 66.8907 21.377C66.6247 20.7727 66.4917 20.0797 66.4917 19.2981C66.4917 18.4976 66.6247 17.7952 66.8907 17.1908C67.1568 16.5865 67.5389 16.1184 68.0372 15.7866C68.5357 15.4567 69.1237 15.2916 69.801 15.2914C70.4783 15.2912 71.0664 15.4563 71.5651 15.7866C72.064 16.1174 72.4483 16.5855 72.718 17.1908C72.9877 17.7962 73.1228 18.4987 73.1232 19.2981C73.1232 20.0795 72.9881 20.7725 72.718 21.377Z" fill="#0030FF"/>
<path d="M91.5545 13.6867C90.3733 12.5655 89.0067 12.0703 87.1754 12.0703C86.0366 12.0703 85.0719 12.3443 84.2879 12.8919C83.8649 13.1875 83.4631 13.5869 83.0788 14.083V14.0643L82.944 14.2269L82.4986 13.8459C82.8719 13.3947 83.0766 12.824 83.0766 12.2345V12.2304H78.9131V26.3251H83.0788V19.0974C83.0788 17.9484 83.3286 17.0555 83.8281 16.4187C84.3275 15.7822 85.1903 15.4636 86.1014 15.4636C86.9774 15.4636 88.0727 15.7531 88.4929 16.332C88.9131 16.9109 89.124 17.7883 89.124 18.9638V26.3251H93.2897V18.7501C93.2897 16.4521 92.7854 14.8551 91.5545 13.6867Z" fill="#0030FF"/>
<path d="M105.303 21.6431C105.118 22.1719 104.779 22.6313 104.332 22.9606C103.797 23.3656 103.154 23.5681 102.403 23.5678C101.754 23.5678 101.177 23.4399 100.674 23.184C100.18 22.9369 99.7686 22.5459 99.4932 22.0606C99.2096 21.5676 99.0678 20.9721 99.0678 20.2741H109.446C109.536 19.8006 109.582 19.3193 109.583 18.8368C109.574 17.4222 109.246 16.1778 108.601 15.1038C107.955 14.0297 107.058 13.2017 105.91 12.6198C104.762 12.0384 103.446 11.7471 101.963 11.7461C100.49 11.7461 99.1927 12.0601 98.0717 12.6882C96.9696 13.297 96.0675 14.2213 95.4773 15.3465C94.8687 16.4907 94.5645 17.8165 94.5645 19.3239C94.5645 20.8773 94.8919 22.217 95.5467 23.3429C96.2016 24.4687 97.1305 25.327 98.3336 25.9176C99.5368 26.5086 100.953 26.804 102.582 26.8038C103.735 26.8038 104.801 26.5945 105.781 26.176C106.76 25.7574 107.57 25.1573 108.21 24.3758C108.851 23.594 109.249 22.6821 109.405 21.6403M99.1366 17.5403C99.1456 16.7402 99.436 16.1098 100.008 15.6492C100.58 15.1886 101.305 14.9584 102.184 14.9584C102.751 14.9584 103.268 15.0584 103.735 15.2585C104.202 15.4587 104.573 15.754 104.847 16.1445C105.122 16.5351 105.263 17.0004 105.273 17.5403H99.1366Z" fill="#0030FF"/>
<path d="M114.919 8.29004H110.753V22.264C110.753 23.5913 111.099 24.6002 111.791 25.2909C112.484 25.9816 113.478 26.3266 114.774 26.326H118.007V22.8251H116.324C115.825 22.8251 115.466 22.7138 115.247 22.4912C115.028 22.2686 114.918 21.908 114.918 21.4093V15.7446H118.007V12.2313H114.919V8.29004Z" fill="#0030FF"/>
<path d="M83.5882 12.2305H83.585L83.5882 12.2341V12.2305Z" fill="#0030FF"/>
<path d="M125.844 12.2305H123.423H121.701H119.979V15.7307H121.701V22.8246H119.979V26.3252H121.701H123.423H124.122H125.844H127.565V22.8246H125.844V12.2305Z" fill="#0030FF"/>
<path d="M123.773 11.146C124.182 11.146 124.583 11.0225 124.923 10.7911C125.264 10.5598 125.529 10.2309 125.686 9.84612C125.843 9.46135 125.884 9.03796 125.804 8.62949C125.724 8.22102 125.527 7.84581 125.237 7.55132C124.947 7.25683 124.578 7.05628 124.177 6.97503C123.775 6.89378 123.358 6.93548 122.98 7.09486C122.601 7.25424 122.278 7.52413 122.05 7.87042C121.823 8.2167 121.701 8.62382 121.701 9.04029C121.701 9.59877 121.919 10.1344 122.308 10.5293C122.696 10.9242 123.223 11.146 123.773 11.146Z" fill="#0030FF"/>
<path d="M166.72 21.6432C166.536 22.1723 166.197 22.632 165.75 22.9616C165.215 23.3666 164.572 23.569 163.821 23.5688C163.171 23.5688 162.595 23.4409 162.092 23.185C161.597 22.9379 161.186 22.5468 160.911 22.0616C160.627 21.5686 160.485 20.9731 160.485 20.2751H170.863C170.954 19.8015 171 19.3203 171.001 18.8378C170.991 17.4232 170.664 16.1788 170.019 15.1047C169.373 14.0307 168.477 13.2027 167.328 12.6208C166.179 12.0394 164.864 11.7481 163.381 11.7471C161.908 11.7471 160.611 12.0611 159.49 12.6892C158.388 13.2979 157.486 14.2222 156.896 15.3475C156.287 16.4917 155.982 17.8175 155.982 19.3249C155.982 20.8783 156.31 22.218 156.965 23.3438C157.62 24.4697 158.548 25.328 159.751 25.9186C160.954 26.5096 162.371 26.805 163.999 26.8048C165.153 26.8048 166.219 26.5955 167.198 26.1769C168.178 25.7584 168.988 25.1583 169.628 24.3767C170.269 23.5949 170.667 22.6831 170.822 21.6413M160.553 17.5403C160.562 16.7402 160.853 16.1099 161.425 15.6493C161.997 15.1887 162.722 14.9584 163.601 14.9584C164.168 14.9584 164.685 15.0585 165.152 15.2586C165.619 15.4587 165.989 15.754 166.264 16.1445C166.538 16.5352 166.68 17.0005 166.689 17.5403H160.553Z" fill="#0030FF"/>
<path d="M59.5271 13.6799C58.4221 12.4588 56.5226 12.0703 54.9897 12.0703C51.9441 12.0703 50.2085 14.9262 50.2085 14.9262L49.5946 14.3733L49.9937 13.7772C49.2518 12.6192 47.7934 12.0703 46.3409 12.0703C45.5612 12.0881 44.6938 12.2151 44.1112 12.451C43.5286 12.6869 42.9963 13.1428 42.515 13.6459L42.5033 13.6583L41.9619 14.3137L41.4317 13.8456C41.8051 13.3943 42.0098 12.8235 42.0097 12.2338V12.2301H36.5518V16.1682H37.8428V26.3513H42.0088V18.8222C42.0088 17.843 42.2366 17.0703 42.6921 16.5043C43.1473 15.9388 43.9865 15.6561 44.784 15.6561C45.5548 15.6561 46.4753 15.9057 46.8348 16.405C47.1942 16.9043 47.3735 17.6651 47.3735 18.6892V26.3523H51.526V18.7023C51.5348 17.7493 51.7715 17.0033 52.236 16.4643C52.7001 15.9257 53.5028 15.6561 54.265 15.6561C55.0185 15.6561 55.769 15.9098 56.1374 16.4175C56.5057 16.9252 56.6899 17.6822 56.6899 18.6886V26.3517H60.8424V18.7501C60.8424 16.4434 60.4566 14.7068 59.5283 13.6799" fill="#0030FF"/>
<path d="M141.308 17.4942V12.2305H129.402V15.7439H135.232C136.023 15.7438 136.799 15.5186 137.471 15.0939L137.798 15.5675L136.801 16.1982L129.088 21.0746V26.3246H141.625V22.8243H132.877L141.308 17.4942Z" fill="#0030FF"/>
<path d="M146.072 22.9847L154.757 17.4926V12.2305H142.85V15.7439H150.968L142.535 21.0746V26.3246H155.072V22.8243H148.622C147.827 22.8242 147.047 23.055 146.376 23.4896L146.072 22.9847Z" fill="#0030FF"/>
</g>
<defs>
<clipPath id="clip0_10972_71834">
<rect width="171" height="35" fill="white"/>
</clipPath>
</defs>
</svg>
